<svg xmlns="http://www.w3.org/2000/svg" viewBox="0 0 560 493" width="560" height="493"><path d="M1.73 228.03 L2.59 234.93 L4.69 237.77 L12.41 243.79 L15.48 244.50 L129.73 244.50 L137.77 241.96 L139.98 240.62 L148.95 232.38 L278.36 52.58 L281.20 50.05 L292.15 44.33 L296.30 44.52 L303.82 46.83 L307.57 49.15 L404.35 151.10 L407.06 159.02 L404.25 169.86 L367.23 208.23 L359.81 212.60 L355.98 213.52 L229.44 214.49 L226.68 215.08 L212.16 221.70 L34.01 470.89 L32.78 473.93 L33.51 482.10 L35.20 484.83 L42.25 489.42 L46.05 490.47 L162.69 488.54 L166.83 487.10 L174.13 481.07 L284.21 320.75 L295.26 315.30 L298.92 314.50 L404.73 314.50 L407.19 314.05 L421.90 308.35 L553.17 171.39 L554.93 168.13 L557.20 157.02 L554.01 147.40 L552.47 144.93 L420.33 7.87 L417.16 5.99 L400.05 1.50 L192.03 1.50 L173.07 6.88 L169.64 9.19 L116.44 75.08 L4.08 222.24 L1.73 228.03 Z M260.27 473.28 L259.14 477.11 L261.42 484.88 L264.09 487.37 L268.45 489.68 L271.75 490.49 L397.58 490.01 L401.15 489.01 L407.73 484.83 L409.47 482.05 L410.30 474.40 L409.18 469.98 L350.12 379.95 L341.91 373.01 L337.57 371.50 L330.41 372.18 L320.87 379.97 L260.27 473.28 Z" fill="currentColor" fill-rule="evenodd"/></svg>
